{
  "header": {
    "keySignatures": [
      {
        "key": "F",
        "scale": "major",
        "ticks": 0
      }
    ],
    "meta": [],
    "name": "",
    "ppq": 192,
    "tempos": [
      {
        "bpm": 107.99991360006912,
        "ticks": 0
      }
    ],
    "timeSignatures": [
      {
        "ticks": 0,
        "timeSignature": [3, 4],
        "measures": 0
      }
    ]
  },
  "tracks": [
    {
      "channel": 0,
      "controlChanges": {
        "0": [
          {
            "number": 0,
            "ticks": 0,
            "time": 0,
            "value": 0
          }
        ],
        "7": [
          {
            "number": 7,
            "ticks": 0,
            "time": 0,
            "value": 1
          },
          {
            "number": 7,
            "ticks": 0,
            "time": 0,
            "value": 1
          }
        ],
        "10": [
          {
            "number": 10,
            "ticks": 0,
            "time": 0,
            "value": 0.5039370078740157
          }
        ],
        "32": [
          {
            "number": 32,
            "ticks": 0,
            "time": 0,
            "value": 0
          }
        ]
      },
      "pitchBends": [],
      "instrument": {
        "family": "piano",
        "name": "acoustic grand piano",
        "number": 0
      },
      "name": "Unnamed-000",
      "notes": [
        {
          "duration": 0.4629633333333334,
          "durationTicks": 160,
          "midi": 57,
          "name": "A3",
          "ticks": 0,
          "time": 0,
          "velocity": 0.8661417322834646
        },
        {
          "duration": 0.4629633333333334,
          "durationTicks": 160,
          "midi": 60,
          "name": "C4",
          "ticks": 0,
          "time": 0,
          "velocity": 0.8661417322834646
        },
        {
          "duration": 0.9722230000000002,
          "durationTicks": 336,
          "midi": 57,
          "name": "A3",
          "ticks": 192,
          "time": 0.555556,
          "velocity": 0.8661417322834646
        },
        {
          "duration": 0.9722230000000002,
          "durationTicks": 336,
          "midi": 65,
          "name": "F4",
          "ticks": 192,
          "time": 0.555556,
          "velocity": 0.8661417322834646
        },
        {
          "duration": 0.4629633333333336,
          "durationTicks": 160,
          "midi": 60,
          "name": "C4",
          "ticks": 576,
          "time": 1.666668,
          "velocity": 0.8661417322834646
        },
        {
          "duration": 0.27199095833333353,
          "durationTicks": 94,
          "midi": 69,
          "name": "A4",
          "ticks": 576,
          "time": 1.666668,
          "velocity": 0.8661417322834646
        },
        {
          "duration": 0.2719909583333333,
          "durationTicks": 94,
          "midi": 65,
          "name": "F4",
          "ticks": 672,
          "time": 1.9444460000000001,
          "velocity": 0.8661417322834646
        },
        {
          "duration": 0.9722230000000001,
          "durationTicks": 336,
          "midi": 60,
          "name": "C4",
          "ticks": 768,
          "time": 2.222224,
          "velocity": 0.8661417322834646
        },
        {
          "duration": 0.9722230000000001,
          "durationTicks": 336,
          "midi": 69,
          "name": "A4",
          "ticks": 768,
          "time": 2.222224,
          "velocity": 0.8661417322834646
        },
        {
          "duration": 0.4629633333333336,
          "durationTicks": 160,
          "midi": 58,
          "name": "A#3",
          "ticks": 1152,
          "time": 3.333336,
          "velocity": 0.8661417322834646
        },
        {
          "duration": 0.4629633333333336,
          "durationTicks": 160,
          "midi": 67,
          "name": "G4",
          "ticks": 1152,
          "time": 3.333336,
          "velocity": 0.8661417322834646
        },
        {
          "duration": 0.9722230000000005,
          "durationTicks": 336,
          "midi": 57,
          "name": "A3",
          "ticks": 1344,
          "time": 3.8888920000000002,
          "velocity": 0.8661417322834646
        },
        {
          "duration": 0.9722230000000005,
          "durationTicks": 336,
          "midi": 65,
          "name": "F4",
          "ticks": 1344,
          "time": 3.8888920000000002,
          "velocity": 0.8661417322834646
        },
        {
          "duration": 0.4629633333333336,
          "durationTicks": 160,
          "midi": 58,
          "name": "A#3",
          "ticks": 1728,
          "time": 5.000004000000001,
          "velocity": 0.8661417322834646
        },
        {
          "duration": 0.4629633333333336,
          "durationTicks": 160,
          "midi": 62,
          "name": "D4",
          "ticks": 1728,
          "time": 5.000004000000001,
          "velocity": 0.8661417322834646
        },
        {
          "duration": 0.9722229999999996,
          "durationTicks": 336,
          "midi": 57,
          "name": "A3",
          "ticks": 1920,
          "time": 5.555560000000001,
          "velocity": 0.8661417322834646
        },
        {
          "duration": 0.9722229999999996,
          "durationTicks": 336,
          "midi": 60,
          "name": "C4",
          "ticks": 1920,
          "time": 5.555560000000001,
          "velocity": 0.8661417322834646
        },
        {
          "duration": 0.4629633333333345,
          "durationTicks": 160,
          "midi": 57,
          "name": "A3",
          "ticks": 2304,
          "time": 6.666672,
          "velocity": 0.8661417322834646
        },
        {
          "duration": 0.4629633333333345,
          "durationTicks": 160,
          "midi": 60,
          "name": "C4",
          "ticks": 2304,
          "time": 6.666672,
          "velocity": 0.8661417322834646
        },
        {
          "duration": 0.9722230000000005,
          "durationTicks": 336,
          "midi": 57,
          "name": "A3",
          "ticks": 2496,
          "time": 7.222228,
          "velocity": 0.8661417322834646
        },
        {
          "duration": 0.9722230000000005,
          "durationTicks": 336,
          "midi": 65,
          "name": "F4",
          "ticks": 2496,
          "time": 7.222228,
          "velocity": 0.8661417322834646
        },
        {
          "duration": 0.4629633333333327,
          "durationTicks": 160,
          "midi": 57,
          "name": "A3",
          "ticks": 2880,
          "time": 8.333340000000002,
          "velocity": 0.8661417322834646
        },
        {
          "duration": 0.2719909583333333,
          "durationTicks": 94,
          "midi": 69,
          "name": "A4",
          "ticks": 2880,
          "time": 8.333340000000002,
          "velocity": 0.8661417322834646
        },
        {
          "duration": 0.2719909583333333,
          "durationTicks": 94,
          "midi": 65,
          "name": "F4",
          "ticks": 2976,
          "time": 8.611118000000001,
          "velocity": 0.8661417322834646
        },
        {
          "duration": 0.9722229999999996,
          "durationTicks": 336,
          "midi": 60,
          "name": "C4",
          "ticks": 3072,
          "time": 8.888896,
          "velocity": 0.8661417322834646
        },
        {
          "duration": 0.9722229999999996,
          "durationTicks": 336,
          "midi": 69,
          "name": "A4",
          "ticks": 3072,
          "time": 8.888896,
          "velocity": 0.8661417322834646
        },
        {
          "duration": 0.4629633333333327,
          "durationTicks": 160,
          "midi": 60,
          "name": "C4",
          "ticks": 3456,
          "time": 10.000008000000001,
          "velocity": 0.8661417322834646
        },
        {
          "duration": 0.4629633333333327,
          "durationTicks": 160,
          "midi": 67,
          "name": "G4",
          "ticks": 3456,
          "time": 10.000008000000001,
          "velocity": 0.8661417322834646
        },
        {
          "duration": 1.5277790000000007,
          "durationTicks": 528,
          "midi": 60,
          "name": "C4",
          "ticks": 3648,
          "time": 10.555564,
          "velocity": 0.8661417322834646
        },
        {
          "duration": 1.5277790000000007,
          "durationTicks": 528,
          "midi": 72,
          "name": "C5",
          "ticks": 3648,
          "time": 10.555564,
          "velocity": 0.8661417322834646
        },
        {
          "duration": 0.4629633333333327,
          "durationTicks": 160,
          "midi": 60,
          "name": "C4",
          "ticks": 4224,
          "time": 12.222232000000002,
          "velocity": 0.8661417322834646
        },
        {
          "duration": 0.4629633333333327,
          "durationTicks": 160,
          "midi": 69,
          "name": "A4",
          "ticks": 4224,
          "time": 12.222232000000002,
          "velocity": 0.8661417322834646
        },
        {
          "duration": 0.9722229999999996,
          "durationTicks": 336,
          "midi": 60,
          "name": "C4",
          "ticks": 4416,
          "time": 12.777788000000001,
          "velocity": 0.8661417322834646
        },
        {
          "duration": 0.8333340000000007,
          "durationTicks": 288,
          "midi": 72,
          "name": "C5",
          "ticks": 4416,
          "time": 12.777788000000001,
          "velocity": 0.8661417322834646
        },
        {
          "duration": 0.27199095833333153,
          "durationTicks": 94,
          "midi": 69,
          "name": "A4",
          "ticks": 4704,
          "time": 13.611122000000002,
          "velocity": 0.8661417322834646
        },
        {
          "duration": 0.2719909583333333,
          "durationTicks": 94,
          "midi": 72,
          "name": "C5",
          "ticks": 4800,
          "time": 13.888900000000001,
          "velocity": 0.8661417322834646
        },
        {
          "duration": 0.2719909583333333,
          "durationTicks": 94,
          "midi": 69,
          "name": "A4",
          "ticks": 4896,
          "time": 14.166678000000001,
          "velocity": 0.8661417322834646
        },
        {
          "duration": 0.9722230000000014,
          "durationTicks": 336,
          "midi": 60,
          "name": "C4",
          "ticks": 4992,
          "time": 14.444456,
          "velocity": 0.8661417322834646
        },
        {
          "duration": 0.9722230000000014,
          "durationTicks": 336,
          "midi": 65,
          "name": "F4",
          "ticks": 4992,
          "time": 14.444456,
          "velocity": 0.8661417322834646
        },
        {
          "duration": 0.4629633333333345,
          "durationTicks": 160,
          "midi": 60,
          "name": "C4",
          "ticks": 5376,
          "time": 15.555568000000001,
          "velocity": 0.8661417322834646
        },
        {
          "duration": 0.8333340000000007,
          "durationTicks": 288,
          "midi": 58,
          "name": "A#3",
          "ticks": 5568,
          "time": 16.111124,
          "velocity": 0.8661417322834646
        },
        {
          "duration": 0.8333340000000007,
          "durationTicks": 288,
          "midi": 62,
          "name": "D4",
          "ticks": 5568,
          "time": 16.111124,
          "velocity": 0.8661417322834646
        },
        {
          "duration": 0.2719909583333333,
          "durationTicks": 94,
          "midi": 60,
          "name": "C4",
          "ticks": 5856,
          "time": 16.944458,
          "velocity": 0.8661417322834646
        },
        {
          "duration": 0.2719909583333333,
          "durationTicks": 94,
          "midi": 65,
          "name": "F4",
          "ticks": 5856,
          "time": 16.944458,
          "velocity": 0.8661417322834646
        },
        {
          "duration": 0.46296333333333095,
          "durationTicks": 160,
          "midi": 58,
          "name": "A#3",
          "ticks": 5952,
          "time": 17.222236000000002,
          "velocity": 0.8661417322834646
        },
        {
          "duration": 0.2719909583333333,
          "durationTicks": 94,
          "midi": 65,
          "name": "F4",
          "ticks": 5952,
          "time": 17.222236000000002,
          "velocity": 0.8661417322834646
        },
        {
          "duration": 0.2719909583333333,
          "durationTicks": 94,
          "midi": 62,
          "name": "D4",
          "ticks": 6048,
          "time": 17.500014,
          "velocity": 0.8661417322834646
        },
        {
          "duration": 0.9722229999999996,
          "durationTicks": 336,
          "midi": 57,
          "name": "A3",
          "ticks": 6144,
          "time": 17.777792,
          "velocity": 0.8661417322834646
        },
        {
          "duration": 0.9722229999999996,
          "durationTicks": 336,
          "midi": 60,
          "name": "C4",
          "ticks": 6144,
          "time": 17.777792,
          "velocity": 0.8661417322834646
        },
        {
          "duration": 0.4629633333333345,
          "durationTicks": 160,
          "midi": 60,
          "name": "C4",
          "ticks": 6528,
          "time": 18.888904,
          "velocity": 0.8661417322834646
        },
        {
          "duration": 0.9722229999999996,
          "durationTicks": 336,
          "midi": 57,
          "name": "A3",
          "ticks": 6720,
          "time": 19.444460000000003,
          "velocity": 0.8661417322834646
        },
        {
          "duration": 0.9722229999999996,
          "durationTicks": 336,
          "midi": 65,
          "name": "F4",
          "ticks": 6720,
          "time": 19.444460000000003,
          "velocity": 0.8661417322834646
        },
        {
          "duration": 0.4629633333333345,
          "durationTicks": 160,
          "midi": 60,
          "name": "C4",
          "ticks": 7104,
          "time": 20.555572,
          "velocity": 0.8661417322834646
        },
        {
          "duration": 0.2719909583333333,
          "durationTicks": 94,
          "midi": 69,
          "name": "A4",
          "ticks": 7104,
          "time": 20.555572,
          "velocity": 0.8661417322834646
        },
        {
          "duration": 0.2719909583333333,
          "durationTicks": 94,
          "midi": 65,
          "name": "F4",
          "ticks": 7200,
          "time": 20.833350000000003,
          "velocity": 0.8661417322834646
        },
        {
          "duration": 0.9722229999999996,
          "durationTicks": 336,
          "midi": 60,
          "name": "C4",
          "ticks": 7296,
          "time": 21.111128,
          "velocity": 0.8661417322834646
        },
        {
          "duration": 0.9722229999999996,
          "durationTicks": 336,
          "midi": 69,
          "name": "A4",
          "ticks": 7296,
          "time": 21.111128,
          "velocity": 0.8661417322834646
        },
        {
          "duration": 0.4629633333333345,
          "durationTicks": 160,
          "midi": 58,
          "name": "A#3",
          "ticks": 7680,
          "time": 22.222240000000003,
          "velocity": 0.8661417322834646
        },
        {
          "duration": 0.4629633333333345,
          "durationTicks": 160,
          "midi": 67,
          "name": "G4",
          "ticks": 7680,
          "time": 22.222240000000003,
          "velocity": 0.8661417322834646
        },
        {
          "duration": 2.0833350000000017,
          "durationTicks": 720,
          "midi": 57,
          "name": "A3",
          "ticks": 7872,
          "time": 22.777796000000002,
          "velocity": 0.8661417322834646
        },
        {
          "duration": 2.0833350000000017,
          "durationTicks": 720,
          "midi": 65,
          "name": "F4",
          "ticks": 7872,
          "time": 22.777796000000002,
          "velocity": 0.8661417322834646
        }
      ],
      "endOfTrackTicks": 8639
    }
  ]
}
